<?xml version="1.0" encoding="UTF-8" standalone="no"?>
<!DOCTYPE svg PUBLIC "-//W3C//DTD SVG 1.1//EN"
 "http://www.w3.org/Graphics/SVG/1.1/DTD/svg11.dtd">
<!-- Generated by graphviz version 3.0.0 (20220226.1711)
 -->
<!-- Title: dependency&#45;cruiser output Pages: 1 -->
<svg width="464pt" height="264pt"
 viewBox="0.00 0.00 464.00 264.00" xmlns="http://www.w3.org/2000/svg" xmlns:xlink="http://www.w3.org/1999/xlink">
<g id="graph0" class="graph" transform="scale(1 1) rotate(0) translate(4 260)">
<title>dependency&#45;cruiser output</title>
<polygon fill="white" stroke="transparent" points="-4,4 -4,-260 460,-260 460,4 -4,4"/>
<g id="clust1" class="cluster">
<title>cluster_lib</title>
<path fill="#ffffff" stroke="black" stroke-width="2" d="M20,-8C20,-8 436,-8 436,-8 442,-8 448,-14 448,-20 448,-20 448,-236 448,-236 448,-242 442,-248 436,-248 436,-248 20,-248 20,-248 14,-248 8,-242 8,-236 8,-236 8,-20 8,-20 8,-14 14,-8 20,-8"/>
<text text-anchor="middle" x="228" y="-236.8" font-family="Helvetica,sans-Serif" font-weight="bold" font-size="9.00">lib</text>
</g>
<g id="clust2" class="cluster">
<title>cluster_lib/TokenConfig</title>
<path fill="#ffffff" stroke="black" stroke-width="2" d="M249,-40C249,-40 366,-40 366,-40 372,-40 378,-46 378,-52 378,-52 378,-170 378,-170 378,-176 372,-182 366,-182 366,-182 249,-182 249,-182 243,-182 237,-176 237,-170 237,-170 237,-52 237,-52 237,-46 243,-40 249,-40"/>
<text text-anchor="middle" x="307.5" y="-170.8" font-family="Helvetica,sans-Serif" font-weight="bold" font-size="9.00">TokenConfig</text>
</g>
<!-- lib/TokenConfig/TokenConfigDefault.ts -->
<g id="node1" class="node">
<title>lib/TokenConfig/TokenConfigDefault.ts</title>
<g id="a_node1"><a xlink:href="lib/TokenConfig/TokenConfigDefault.ts" xlink:title="TokenConfigDefault.ts">
<path fill="#ddfeff" stroke="black" d="M355.5,-156C355.5,-156 259.5,-156 259.5,-156 256.5,-156 253.5,-153 253.5,-150 253.5,-150 253.5,-144 253.5,-144 253.5,-141 256.5,-138 259.5,-138 259.5,-138 355.5,-138 355.5,-138 358.5,-138 361.5,-141 361.5,-144 361.5,-144 361.5,-150 361.5,-150 361.5,-153 358.5,-156 355.5,-156"/>
<text text-anchor="start" x="261.5" y="-144.8" font-family="Helvetica,sans-Serif" font-size="9.00">TokenConfigDefault.ts</text>
</a>
</g>
</g>
<!-- lib/types.ts -->
<g id="node2" class="node">
<title>lib/types.ts</title>
<g id="a_node2"><a xlink:href="lib/types.ts" xlink:title="types.ts">
<path fill="#ddfeff" stroke="black" d="M434,-111C434,-111 392,-111 392,-111 389,-111 386,-108 386,-105 386,-105 386,-99 386,-99 386,-96 389,-93 392,-93 392,-93 434,-93 434,-93 437,-93 440,-96 440,-99 440,-99 440,-105 440,-105 440,-108 437,-111 434,-111"/>
<text text-anchor="start" x="397" y="-99.8" font-family="Helvetica,sans-Serif" font-size="9.00">types.ts</text>
</a>
</g>
</g>
<!-- lib/TokenConfig/TokenConfigDefault.ts&#45;&gt;lib/types.ts -->
<g id="edge1" class="edge">
<title>lib/TokenConfig/TokenConfigDefault.ts&#45;&gt;lib/types.ts</title>
<path fill="none" stroke="#000000" stroke-width="2" stroke-opacity="0.200000" d="M361.8,-147C387.65,-147 413,-147 413,-147 413,-147 413,-117.11 413,-117.11"/>
<polygon fill="#000000" fill-opacity="0.200000" stroke="#000000" stroke-width="2" stroke-opacity="0.200000" points="415.1,-117.11 413,-111.11 410.9,-117.11 415.1,-117.11"/>
</g>
<!-- lib/TokenConfig/TokenConfigExpression.ts -->
<g id="node3" class="node">
<title>lib/TokenConfig/TokenConfigExpression.ts</title>
<g id="a_node3"><a xlink:href="lib/TokenConfig/TokenConfigExpression.ts" xlink:title="TokenConfigExpression.ts">
<path fill="#ddfeff" stroke="black" d="M364,-126C364,-126 251,-126 251,-126 248,-126 245,-123 245,-120 245,-120 245,-114 245,-114 245,-111 248,-108 251,-108 251,-108 364,-108 364,-108 367,-108 370,-111 370,-114 370,-114 370,-120 370,-120 370,-123 367,-126 364,-126"/>
<text text-anchor="start" x="253" y="-114.8" font-family="Helvetica,sans-Serif" font-size="9.00">TokenConfigExpression.ts</text>
</a>
</g>
</g>
<!-- lib/TokenConfig/TokenConfigExpression.ts&#45;&gt;lib/types.ts -->
<g id="edge2" class="edge">
<title>lib/TokenConfig/TokenConfigExpression.ts&#45;&gt;lib/types.ts</title>
<path fill="none" stroke="#000000" stroke-width="2" stroke-opacity="0.200000" d="M370.22,-118.5C386.72,-118.5 400,-118.5 400,-118.5 400,-118.5 400,-117.02 400,-117.02"/>
<polygon fill="#000000" fill-opacity="0.200000" stroke="#000000" stroke-width="2" stroke-opacity="0.200000" points="402.1,-117.02 400,-111.02 397.9,-117.02 402.1,-117.02"/>
</g>
<!-- lib/TokenConfig/TokenConfigNumeric.ts -->
<g id="node4" class="node">
<title>lib/TokenConfig/TokenConfigNumeric.ts</title>
<g id="a_node4"><a xlink:href="lib/TokenConfig/TokenConfigNumeric.ts" xlink:title="TokenConfigNumeric.ts">
<path fill="#ddfeff" stroke="black" d="M358.5,-96C358.5,-96 256.5,-96 256.5,-96 253.5,-96 250.5,-93 250.5,-90 250.5,-90 250.5,-84 250.5,-84 250.5,-81 253.5,-78 256.5,-78 256.5,-78 358.5,-78 358.5,-78 361.5,-78 364.5,-81 364.5,-84 364.5,-84 364.5,-90 364.5,-90 364.5,-93 361.5,-96 358.5,-96"/>
<text text-anchor="start" x="258.5" y="-84.8" font-family="Helvetica,sans-Serif" font-size="9.00">TokenConfigNumeric.ts</text>
</a>
</g>
</g>
<!-- lib/TokenConfig/TokenConfigNumeric.ts&#45;&gt;lib/types.ts -->
<g id="edge3" class="edge">
<title>lib/TokenConfig/TokenConfigNumeric.ts&#45;&gt;lib/types.ts</title>
<path fill="none" stroke="#000000" stroke-width="2" stroke-opacity="0.200000" d="M364.8,-85.5C395.47,-85.5 427,-85.5 427,-85.5 427,-85.5 427,-86.98 427,-86.98"/>
<polygon fill="#000000" fill-opacity="0.200000" stroke="#000000" stroke-width="2" stroke-opacity="0.200000" points="424.9,-86.98 427,-92.98 429.1,-86.98 424.9,-86.98"/>
</g>
<!-- lib/TokenConfig/TokenConfigSet.ts -->
<g id="node5" class="node">
<title>lib/TokenConfig/TokenConfigSet.ts</title>
<g id="a_node5"><a xlink:href="lib/TokenConfig/TokenConfigSet.ts" xlink:title="TokenConfigSet.ts">
<path fill="#ddfeff" stroke="black" d="M347.5,-66C347.5,-66 267.5,-66 267.5,-66 264.5,-66 261.5,-63 261.5,-60 261.5,-60 261.5,-54 261.5,-54 261.5,-51 264.5,-48 267.5,-48 267.5,-48 347.5,-48 347.5,-48 350.5,-48 353.5,-51 353.5,-54 353.5,-54 353.5,-60 353.5,-60 353.5,-63 350.5,-66 347.5,-66"/>
<text text-anchor="start" x="269.5" y="-54.8" font-family="Helvetica,sans-Serif" font-size="9.00">TokenConfigSet.ts</text>
</a>
</g>
</g>
<!-- lib/TokenConfig/TokenConfigSet.ts&#45;&gt;lib/types.ts -->
<g id="edge4" class="edge">
<title>lib/TokenConfig/TokenConfigSet.ts&#45;&gt;lib/types.ts</title>
<path fill="none" stroke="#000000" stroke-width="2" stroke-opacity="0.200000" d="M353.77,-57C382.12,-57 413,-57 413,-57 413,-57 413,-86.89 413,-86.89"/>
<polygon fill="#000000" fill-opacity="0.200000" stroke="#000000" stroke-width="2" stroke-opacity="0.200000" points="410.9,-86.89 413,-92.89 415.1,-86.89 410.9,-86.89"/>
</g>
<!-- lib/index.ts -->
<g id="node6" class="node">
<title>lib/index.ts</title>
<g id="a_node6"><a xlink:href="lib/index.ts" xlink:title="index.ts">
<path fill="#ddfeff" stroke="black" d="M64,-61C64,-61 22,-61 22,-61 19,-61 16,-58 16,-55 16,-55 16,-49 16,-49 16,-46 19,-43 22,-43 22,-43 64,-43 64,-43 67,-43 70,-46 70,-49 70,-49 70,-55 70,-55 70,-58 67,-61 64,-61"/>
<text text-anchor="start" x="27" y="-49.8" font-family="Helvetica,sans-Serif" font-size="9.00">index.ts</text>
</a>
</g>
</g>
<!-- lib/index.ts&#45;&gt;lib/types.ts -->
<g id="edge7" class="edge">
<title>lib/index.ts&#45;&gt;lib/types.ts</title>
<path fill="none" stroke="#000000" stroke-width="2" stroke-opacity="0.200000" d="M52,-61.06C52,-66.36 52,-72 52,-72 52,-72 400,-72 400,-72 400,-72 400,-86.84 400,-86.84"/>
<polygon fill="#000000" fill-opacity="0.200000" stroke="#000000" stroke-width="2" stroke-opacity="0.200000" points="397.9,-92.84 400,-86.84 402.1,-92.84 397.9,-92.84"/>
</g>
<!-- lib/numexp.ts -->
<g id="node7" class="node">
<title>lib/numexp.ts</title>
<g id="a_node7"><a xlink:href="lib/numexp.ts" xlink:title="numexp.ts">
<path fill="#ddfeff" stroke="black" d="M136,-61C136,-61 89,-61 89,-61 86,-61 83,-58 83,-55 83,-55 83,-49 83,-49 83,-46 86,-43 89,-43 89,-43 136,-43 136,-43 139,-43 142,-46 142,-49 142,-49 142,-55 142,-55 142,-58 139,-61 136,-61"/>
<text text-anchor="start" x="91" y="-49.8" font-family="Helvetica,sans-Serif" font-size="9.00">numexp.ts</text>
</a>
</g>
</g>
<!-- lib/index.ts&#45;&gt;lib/numexp.ts -->
<g id="edge5" class="edge">
<title>lib/index.ts&#45;&gt;lib/numexp.ts</title>
<path fill="none" stroke="#000000" stroke-width="2" stroke-opacity="0.200000" d="M70.07,-52C70.07,-52 76.63,-52 76.63,-52"/>
<polygon fill="#000000" fill-opacity="0.200000" stroke="#000000" stroke-width="2" stroke-opacity="0.200000" points="82.63,-54.1 76.63,-52 82.63,-49.9 82.63,-54.1"/>
</g>
<!-- lib/shutingyard.ts -->
<g id="node8" class="node">
<title>lib/shutingyard.ts</title>
<g id="a_node8"><a xlink:href="lib/shutingyard.ts" xlink:title="shutingyard.ts">
<path fill="#ddfeff" stroke="black" d="M223,-111C223,-111 161,-111 161,-111 158,-111 155,-108 155,-105 155,-105 155,-99 155,-99 155,-96 158,-93 161,-93 161,-93 223,-93 223,-93 226,-93 229,-96 229,-99 229,-99 229,-105 229,-105 229,-108 226,-111 223,-111"/>
<text text-anchor="start" x="163" y="-99.8" font-family="Helvetica,sans-Serif" font-size="9.00">shutingyard.ts</text>
</a>
</g>
</g>
<!-- lib/index.ts&#45;&gt;lib/shutingyard.ts -->
<g id="edge6" class="edge">
<title>lib/index.ts&#45;&gt;lib/shutingyard.ts</title>
<path fill="none" stroke="#000000" stroke-width="2" stroke-opacity="0.200000" d="M34,-61.23C34,-76.42 34,-105 34,-105 34,-105 148.96,-105 148.96,-105"/>
<polygon fill="#000000" fill-opacity="0.200000" stroke="#000000" stroke-width="2" stroke-opacity="0.200000" points="154.96,-107.1 148.96,-105 154.96,-102.9 154.96,-107.1"/>
</g>
<!-- lib/numexp.ts&#45;&gt;lib/types.ts -->
<g id="edge10" class="edge">
<title>lib/numexp.ts&#45;&gt;lib/types.ts</title>
<path fill="none" stroke="#000000" stroke-width="2" stroke-opacity="0.200000" d="M142,-52.33C178.82,-52.33 237,-52.33 237,-52.33 237,-52.33 237,-100 237,-100 237,-100 379.89,-100 379.89,-100"/>
<polygon fill="#000000" fill-opacity="0.200000" stroke="#000000" stroke-width="2" stroke-opacity="0.200000" points="379.89,-102.1 385.89,-100 379.89,-97.9 379.89,-102.1"/>
</g>
<!-- lib/numexp.ts&#45;&gt;lib/shutingyard.ts -->
<g id="edge9" class="edge">
<title>lib/numexp.ts&#45;&gt;lib/shutingyard.ts</title>
<path fill="none" stroke="#000000" stroke-width="2" stroke-opacity="0.200000" d="M113,-61.06C113,-74.72 113,-99 113,-99 113,-99 148.81,-99 148.81,-99"/>
<polygon fill="#000000" fill-opacity="0.200000" stroke="#000000" stroke-width="2" stroke-opacity="0.200000" points="148.81,-101.1 154.81,-99 148.81,-96.9 148.81,-101.1"/>
</g>
<!-- lib/shutingyard.ts&#45;&gt;lib/TokenConfig/TokenConfigDefault.ts -->
<g id="edge12" class="edge">
<title>lib/shutingyard.ts&#45;&gt;lib/TokenConfig/TokenConfigDefault.ts</title>
<path fill="none" stroke="#000000" stroke-width="2" stroke-opacity="0.200000" d="M192,-111.11C192,-124.26 192,-147 192,-147 192,-147 247.47,-147 247.47,-147"/>
<polygon fill="#000000" fill-opacity="0.200000" stroke="#000000" stroke-width="2" stroke-opacity="0.200000" points="247.47,-149.1 253.47,-147 247.47,-144.9 247.47,-149.1"/>
</g>
<!-- lib/shutingyard.ts&#45;&gt;lib/types.ts -->
<g id="edge16" class="edge">
<title>lib/shutingyard.ts&#45;&gt;lib/types.ts</title>
<path fill="none" stroke="#000000" stroke-width="2" stroke-opacity="0.200000" d="M229.49,-104C229.49,-104 379.8,-104 379.8,-104"/>
<polygon fill="#000000" fill-opacity="0.200000" stroke="#000000" stroke-width="2" stroke-opacity="0.200000" points="379.8,-106.1 385.8,-104 379.8,-101.9 379.8,-106.1"/>
</g>
<!-- lib/shutingyard.ts&#45;&gt;lib/TokenConfig/TokenConfigExpression.ts -->
<g id="edge13" class="edge">
<title>lib/shutingyard.ts&#45;&gt;lib/TokenConfig/TokenConfigExpression.ts</title>
<path fill="none" stroke="#000000" stroke-width="2" stroke-opacity="0.200000" d="M211,-111.02C211,-114.87 211,-118.5 211,-118.5 211,-118.5 238.75,-118.5 238.75,-118.5"/>
<polygon fill="#000000" fill-opacity="0.200000" stroke="#000000" stroke-width="2" stroke-opacity="0.200000" points="238.75,-120.6 244.75,-118.5 238.75,-116.4 238.75,-120.6"/>
</g>
<!-- lib/shutingyard.ts&#45;&gt;lib/TokenConfig/TokenConfigNumeric.ts -->
<g id="edge14" class="edge">
<title>lib/shutingyard.ts&#45;&gt;lib/TokenConfig/TokenConfigNumeric.ts</title>
<path fill="none" stroke="#000000" stroke-width="2" stroke-opacity="0.200000" d="M205,-92.98C205,-89.13 205,-85.5 205,-85.5 205,-85.5 244.26,-85.5 244.26,-85.5"/>
<polygon fill="#000000" fill-opacity="0.200000" stroke="#000000" stroke-width="2" stroke-opacity="0.200000" points="244.26,-87.6 250.26,-85.5 244.26,-83.4 244.26,-87.6"/>
</g>
<!-- lib/shutingyard.ts&#45;&gt;lib/TokenConfig/TokenConfigSet.ts -->
<g id="edge15" class="edge">
<title>lib/shutingyard.ts&#45;&gt;lib/TokenConfig/TokenConfigSet.ts</title>
<path fill="none" stroke="#000000" stroke-width="2" stroke-opacity="0.200000" d="M180,-92.83C180,-79.58 180,-56.67 180,-56.67 180,-56.67 255.47,-56.67 255.47,-56.67"/>
<polygon fill="#000000" fill-opacity="0.200000" stroke="#000000" stroke-width="2" stroke-opacity="0.200000" points="255.47,-58.77 261.47,-56.67 255.47,-54.57 255.47,-58.77"/>
</g>
<!-- lib/normalize.ts -->
<g id="node9" class="node">
<title>lib/normalize.ts</title>
<g id="a_node9"><a xlink:href="lib/normalize.ts" xlink:title="normalize.ts">
<path fill="#ddfeff" stroke="black" d="M335,-222C335,-222 280,-222 280,-222 277,-222 274,-219 274,-216 274,-216 274,-210 274,-210 274,-207 277,-204 280,-204 280,-204 335,-204 335,-204 338,-204 341,-207 341,-210 341,-210 341,-216 341,-216 341,-219 338,-222 335,-222"/>
<text text-anchor="start" x="282" y="-210.8" font-family="Helvetica,sans-Serif" font-size="9.00">normalize.ts</text>
</a>
</g>
</g>
<!-- lib/shutingyard.ts&#45;&gt;lib/normalize.ts -->
<g id="edge11" class="edge">
<title>lib/shutingyard.ts&#45;&gt;lib/normalize.ts</title>
<path fill="none" stroke="#000000" stroke-width="2" stroke-opacity="0.200000" d="M174,-111.08C174,-137.59 174,-213 174,-213 174,-213 267.81,-213 267.81,-213"/>
<polygon fill="#000000" fill-opacity="0.200000" stroke="#000000" stroke-width="2" stroke-opacity="0.200000" points="267.81,-215.1 273.81,-213 267.81,-210.9 267.81,-215.1"/>
</g>
<!-- lib/normalize.ts&#45;&gt;lib/types.ts -->
<g id="edge8" class="edge">
<title>lib/normalize.ts&#45;&gt;lib/types.ts</title>
<path fill="none" stroke="#000000" stroke-width="2" stroke-opacity="0.200000" d="M341.11,-213C376.45,-213 427,-213 427,-213 427,-213 427,-117.08 427,-117.08"/>
<polygon fill="#000000" fill-opacity="0.200000" stroke="#000000" stroke-width="2" stroke-opacity="0.200000" points="429.1,-117.08 427,-111.08 424.9,-117.08 429.1,-117.08"/>
</g>
</g>
</svg>
